# xmcd
#
# Track frame offsets:
#	150
#	17025
#	32127
#	51187
#	65226
#	81001
#	98211
#	114907
#	130407
#	147044
#	162600
#	179350
#	195307
#	209862
#	226972
#	254805
#
# Disc length: 3880 seconds
# Revision: 1
# Processed by: cddbd v1.5.2PL0 Copyright (c) Steve Scherf et al.
# Submitted via: dBpowerAMP V12.0
#
DISCID=ed0f2610
DTITLE=Trace Adkins - Proud to be Here
DYEAR=2011
DGENRE=Country
TTITLE0=Proud to be Here
TTITLE1=Million Dollar View
TTITLE2=Days Like This
TTITLE3=That's What You Get
TTITLE4=Just Fishin'
TTITLE5=It's a Woman Thang
TTITLE6=Love Buzz
TTITLE7=It's Who You Know
TTITLE8=Poor Folks
TTITLE9=Always Gonna be That Way
TTITLE10=Damn You Bubba
TTITLE11=More of us
TTITLE12=If I Was a Woman
TTITLE13=Semper fi
TTITLE14=How Long (Live)
TTITLE15=One in a Million (Live)
EXTD=
EXTT0=
EXTT1=
EXTT2=
EXTT3=
EXTT4=
EXTT5=
EXTT6=
EXTT7=
EXTT8=
EXTT9=
EXTT10=
EXTT11=
EXTT12=
EXTT13=
EXTT14=
EXTT15=
PLAYORDER=
